# xmcd
#
# Track frame offsets: 
#        150
#        19457
#        30992
#        46277
#        71322
#        101680
#        115807
#        132800
#        152747
#        166467
#        183677
#        196657
#        210732
#        225915
#
# Disc length: 3172 seconds
#
# Revision: 2
# Processed by: cddbd v1.5.2PL0 Copyright (c) Steve Scherf et al.
# Submitted via: ExactAudioCopy v0.95a4
#
DISCID=b20c620e
DTITLE=Nick Moss and The Flip Tops - First Offense
DYEAR=2003
DGENRE=Blues
TTITLE0=Try To Treat You Right
TTITLE1=Night Has Fallen
TTITLE2=Baby's Got Ways
TTITLE3=She Keeps Me Worried
TTITLE4=No Hide Nor Hair
TTITLE5=You Right And I'm Wrong
TTITLE6=Just Stay In Bed
TTITLE7=Chez Sweet Petite Pea
TTITLE8=Judged By Twelve
TTITLE9=Tossin' And Turning
TTITLE10=Just In From Texas
TTITLE11=Crazy Mixed Up Baby
TTITLE12=All Night Jump
TTITLE13=Lost Paycheck Blues
EXTD=
EXTT0=
EXTT1=
EXTT2=
EXTT3=
EXTT4=
EXTT5=
EXTT6=
EXTT7=
EXTT8=
EXTT9=
EXTT10=
EXTT11=
EXTT12=
EXTT13=
PLAYORDER=
